<!-- Generator: Adobe Illustrator 20.1.0, SVG Export Plug-In  -->
<svg version="1.1"
	 xmlns="http://www.w3.org/2000/svg" xmlns:xlink="http://www.w3.org/1999/xlink" xmlns:a="http://ns.adobe.com/AdobeSVGViewerExtensions/3.0/"
	 x="0px" y="0px" width="504.6px" height="485.1px" viewBox="0 0 504.6 485.1" style="enable-background:new 0 0 504.6 485.1;"
	 xml:space="preserve">
<style type="text/css">
	.st0{fill:#00FFFF;}
</style>
<defs>
</defs>
<rect x="-18.1" y="160.3" transform="matrix(0.7076 -0.7066 0.7066 0.7076 -100.411 242.4372)" class="st0" width="521.7" height="164.6"/>
<g>
	<path d="M261.7,332.4h6.1c4.6,0,7.2,2.8,7.2,7.4v13.4c0,5.3-2.7,7.8-7.5,7.8h-5.7V332.4z M265.8,357.1h1.9c2.3,0,3.2-1.1,3.2-3.6
		v-13.8c0-2.2-0.8-3.5-3.2-3.5h-1.9V357.1z"/>
	<path d="M279.4,332.4h12.2v3.8h-8.1v8.4h7.1v3.8h-7.1v8.4h8.1v4.1h-12.2V332.4z"/>
	<path d="M304.6,361H301l-5.8-28.6h4.3l3.2,19.9h0.1l3.3-19.9h4.3L304.6,361z"/>
	<path d="M314.3,332.4h12.2v3.8h-8.1v8.4h7.1v3.8h-7.1v8.4h8.1v4.1h-12.2V332.4z"/>
	<path d="M331.6,332.4h4.1v24.5h8.1v4.1h-12.2V332.4z"/>
	<path d="M346.8,339.1c0-4.7,3.5-7,6.9-7c3.3,0,6.9,2.3,6.9,7v15.1c0,4.7-3.5,7-6.9,7c-3.3,0-6.9-2.3-6.9-7V339.1z M350.9,354.2
		c0,2,1.3,2.9,2.8,2.9c1.5,0,2.8-0.9,2.8-2.9v-15.1c0-2-1.3-2.9-2.8-2.9c-1.5,0-2.8,0.9-2.8,2.9V354.2z"/>
	<path d="M365.5,332.4h6.1c2.2,0,3.9,0.5,5.3,2c1.4,1.5,1.8,3.3,1.8,6.7c0,2.5-0.2,4.2-1.2,5.7c-1.1,1.8-2.9,3-5.9,3h-2.1V361h-4.1
		V332.4z M369.6,346h2c3.3,0,3.4-2,3.4-4.8c0-2.7,0-4.9-3.2-4.9h-2.1V346z"/>
	<path d="M383.2,332.4h3.9l5.3,15.1h0.1l5.2-15.1h4V361h-4.1v-17.4h-0.1l-4,12.3h-2l-4-12.3h-0.1V361h-4.1V332.4z"/>
	<path d="M407,332.4h12.2v3.8H411v8.4h7.1v3.8H411v8.4h8.1v4.1H407V332.4z"/>
	<path d="M424,332.4h3.9l6.2,17.2h0.1v-17.2h4.1V361h-3.8l-6.3-17.2h-0.1V361H424V332.4z"/>
	<path d="M447.1,336.2h-4.7v-3.8h13.6v3.8h-4.7V361h-4.1V336.2z"/>
	<path d="M111.8,332.4h6.1c4.6,0,7.2,2.8,7.2,7.4v13.4c0,5.3-2.7,7.8-7.5,7.8h-5.7V332.4z M115.9,357.1h1.9c2.3,0,3.2-1.1,3.2-3.6
		v-13.8c0-2.2-0.8-3.5-3.2-3.5h-1.9V357.1z"/>
	<path d="M129.5,332.4h12.2v3.8h-8.1v8.4h7.1v3.8h-7.1v8.4h8.1v4.1h-12.2V332.4z"/>
	<path d="M158.9,340.6h-4.1v-0.9c0-1.9-0.8-3.4-2.9-3.4c-2.2,0-2.8,1.8-2.8,3.7c0,2.2,0.2,3,2.3,3.8l3.1,1.2
		c3.6,1.4,4.3,3.6,4.3,7.8c0,4.8-1.8,8.4-7.1,8.4c-4,0-7-2.9-7-6.8v-1.5h4.1v1.3c0,1.5,0.8,2.9,2.9,2.9c2.8,0,3-1.6,3-4.3
		c0-3-0.4-3.5-2.4-4.3l-2.9-1.2c-3.5-1.4-4.5-3.8-4.5-7.3c0-4.3,2.3-7.8,7-7.8c4.1,0,6.8,3.3,6.8,6.5V340.6z"/>
	<path d="M163.5,332.4h4.1V361h-4.1V332.4z"/>
	<path d="M172.7,339.1c0-4.7,3.5-7,6.9-7c3.3,0,6.9,2.3,6.9,7v1.4h-4.1v-1.4c0-2-1.3-2.9-2.8-2.9c-1.5,0-2.8,0.9-2.8,2.9v15.1
		c0,2,1.3,2.9,2.8,2.9c1.5,0,2.8-0.9,2.8-2.9v-5.4h-3.2v-3.6h7.3v9c0,4.7-3.5,7-6.9,7c-3.3,0-6.9-2.3-6.9-7V339.1z"/>
	<path d="M192.3,332.4h3.9l6.2,17.2h0.1v-17.2h4.1V361h-3.8l-6.3-17.2h-0.1V361h-4.1V332.4z"/>
	<g>
		<polygon points="240.7,332.5 237.2,332.5 237.1,332.6 245,348.2 248,346.8 		"/>
		<polygon points="240.7,361 237.2,361 237.1,361 245,345.4 248,346.7 		"/>
	</g>
	<g>
		<polygon points="227.4,332.5 230.9,332.5 231,332.6 223.1,348.2 220.1,346.8 		"/>
		<polygon points="227.4,361 230.9,361 231,361 223.1,345.4 220.1,346.7 		"/>
	</g>
</g>
<path d="M133.4,187.9L133.4,187.9C133.4,187.9,133.4,187.9,133.4,187.9c-0.2-0.1-0.3-0.3-0.5-0.4c-5.4-4-55.2-41.4-62-43.4
	c-5.7-1.6-0.8,17.5,4.8,24.9l34.3,33.3l0.1,56.1l-11.6,11.2l-11.7-11l-0.1-50.5l-16.3-16.9c0,0-8.4-9.9-8.4,4.3v64.4
	c0,0-0.7,5.2,5.9,12.2l22.6,22.6c0,0,7.1,9.1,15.8,0c9-9.4,22.6-22.5,22.6-22.5s5.7-4.6,5.7-11.9c0-7.3,0.2-65.2,0.2-65.2
	S135.3,189.7,133.4,187.9z"/>
<path d="M287.3,256.5"/>
<path d="M279.5,183.2l-16.5,16.5l-0.1,55.1L252,265.6l0,0.1l0-0.1l-10.8-10.8v-51.2c0-1.9,0-3.8,0-3.8l-3.6-3.6h0l-13-13
	c0,0-8.2-9.7-8.2,4.2v16.2v52v0.4c0,0,0,5,5.8,11.9l22.1,22.1c0,0,3,4.2,7.8,4c4.8,0.2,7.8-4,7.8-4l22.1-22.1
	c5.8-6.9,5.8-11.9,5.8-11.9v-68.7C287.6,173.5,279.5,183.2,279.5,183.2z"/>
<path d="M304.8,187.2c0,0-0.9-13.3,7.5-4.3c8.8,9.4,17.3,15.9,17.3,24.2l0,60.5c0,0,0.9,5.5-4.9,11.4c-5.8,5.9-11.7,11.8-11.7,11.8
	s-8.2,9.1-8.2-3.4L304.8,187.2z"/>
<path d="M420.1,267.7l0-60.5c0-8.3-8.3-15-17.3-24.2c-3.2-3.2-5-3.6-6.1-2.8c-0.7,0.3-1.6,1.1-2.9,2.5c-5.9,6.3-22.8,23-22.8,23
	l-1.1,1c-0.3-8.1-8.7-14.5-17.3-23.7c-8.5-9.2-7.5,4.3-7.5,4.3l0,100.2c0,12.5,8.2,3.4,8.2,3.4s5.9-6,11.7-11.8
	c5.8-5.9,4.9-11.4,4.9-11.4l0-35l25.4-25.8l0,80.6c0,12.5,8.2,3.4,8.2,3.4s5.9-6,11.7-11.8C421,273.2,420.1,267.7,420.1,267.7z"/>
<path d="M491.9,246l-19.8,18.6l-12.8-12.6l0-13c0,0,0,0,0-0.1c0.2-2.1,1.1-2.9,1.1-2.9l0,0l22.4-23.7c1.3-1.3,1.4-3.3,0.2-4.3
	L470,196l-12.5-12.3c-8.1-7.7-13.2-1.4-13.2-1.4s-2.6,2.7-6.1,6c-4.5,4.3-4.1,8.1-4.1,8.1v63.9c0,1.8,0.6,3.1,1.7,4v0l29.2,27.4
	c5.7,5.8,11.5-0.8,11.5-0.8l4.2-4.1c6.8-6.7,13.7-20.2,15-23.6c9.5-19.5,8.8-21.2,8.8-21.2C504.6,232.6,491.9,246,491.9,246z"/>
<path d="M208.2,256.2c0-9.3-10.8,0.1-10.8,0.1l-10.4,8.2l-12.8-12.6l0-13c0,0,0,0,0-0.1c0.2-2.1,1.1-2.9,1.1-2.9l0,0l22.4-23.7
	c1.3-1.3,1.4-3.3,0.2-4.3l-13-11.9l-12.5-12.3c-8.1-7.7-13.2-1.4-13.2-1.4s-2.6,2.7-6.1,6c-4.5,4.3-4.1,8.1-4.1,8.1v63.9
	c0,1.8,0.6,3.1,1.7,4v0l29.2,27.4c5.7,5.8,11.5-0.8,11.5-0.8s9.8-13,13.3-22.7C208.3,258.5,208.2,256.2,208.2,256.2z"/>
</svg>
